<svg xmlns="http://www.w3.org/2000/svg" width="50" height="50" viewBox="0 0 50 50">
    <path style="text-indent:0;text-align:start;line-height:normal;text-transform:none;block-progression:tb;-inkscape-font-specification:Bitstream Vera Sans" d="M 2 3 C 0.9069372 3 0 3.9069372 0 5 L 0 48 C 0 49.093063 0.9069372 50 2 50 L 14 50 C 15.093063 50 16 49.093063 16 48 L 16 5 C 16 3.9069372 15.093063 3 14 3 L 2 3 z M 18 3 L 18 5 L 48 5 L 48 40 L 32.1875 40 A 1.0001 1.0001 0 0 0 31.78125 40 L 24.1875 40 A 1.0001 1.0001 0 0 0 23.78125 40 L 18 40 L 18 42 L 23 42 L 23 44 L 20.875 44 C 19.258912 44 18 45.384993 18 47 L 18 49 L 18 50 L 19 50 L 37 50 L 38 50 L 38 49 L 38 47 C 38 45.384993 36.741088 44 35.125 44 L 33 44 L 33 42 L 48 42 C 49.093063 42 50 41.093063 50 40 L 50 5 C 50 3.9069372 49.093063 3 48 3 L 18 3 z M 2 5 L 14 5 L 14 48 L 2 48 L 2 5 z M 18 7 L 18 9 L 44 9 L 44 33 L 18 33 L 18 35 L 44 35 C 45.093063 35 46 34.093063 46 33 L 46 9 C 46 7.9069372 45.093063 7 44 7 L 18 7 z M 8 41 C 6.896 41 6 41.895 6 43 C 6 44.105 6.896 45 8 45 C 9.104 45 10 44.105 10 43 C 10 41.895 9.104 41 8 41 z M 25 42 L 31 42 L 31 44 L 25 44 L 25 42 z M 20.875 46 L 31.8125 46 L 32.21875 46 L 35.125 46 C 35.590912 46 36 46.411007 36 47 L 36 48 L 20 48 L 20 47 C 20 46.411007 20.409088 46 20.875 46 z" color="#000" overflow="visible" enable-background="accumulate" font-family="Bitstream Vera Sans"></path>
</svg>