<svg xmlns="http://www.w3.org/2000/svg" viewBox="0 0 50 50">
    <path style="line-height:normal;text-indent:0;text-align:start;text-decoration-line:none;text-decoration-style:solid;text-decoration-color:#000;text-transform:none;block-progression:tb;isolation:auto;mix-blend-mode:normal" d="M 14 0 C 12.088889 0 10.24218 0.32178076 8.5 1.0839844 A 1.0001 1.0001 0 1 0 9.3007812 2.9160156 C 10.758602 2.2782192 12.311111 2 14 2 C 20.662963 2 26 7.337037 26 14 C 26 20.662963 20.662963 26 14 26 C 7.337037 26 2 20.662963 2 14 C 2 10.960748 3.1627205 8.2405658 5 6.0859375 L 5 8.6992188 A 1.0001 1.0001 0 1 0 7 8.6992188 L 7 3 L 1.3007812 3 A 1.0001 1.0001 0 1 0 1.3007812 5 L 3.2929688 5 C 1.2837799 7.4487753 0 10.55414 0 14 C 0 21.737037 6.262963 28 14 28 C 21.737037 28 28 21.737037 28 14 C 28 6.262963 21.737037 0 14 0 z M 38 0 C 36.906937 0 36 0.9069372 36 2 L 36 4 L 26.470703 4 C 26.975703 4.629 27.428938 5.299 27.835938 6 L 36 6 L 36 8 C 36 9.0930628 36.906937 10 38 10 L 40 10 C 41.093063 10 42 9.0930628 42 8 L 42 6 L 47 6 L 47 13 L 29.949219 13 C 29.970219 13.332 30 13.662 30 14 C 30 14.338 29.970219 14.668 29.949219 15 L 47 15 L 47 46 L 5 46 L 5 27.21875 C 4.287 26.73175 3.624 26.180891 3 25.587891 L 3 46 C 3 47.159 3.841 48 5 48 L 47 48 C 48.159 48 49 47.159 49 46 L 49 6 C 49 4.841 48.159 4 47 4 L 42 4 L 42 2 C 42 0.9069372 41.093063 0 40 0 L 38 0 z M 38 2 L 40 2 L 40 8 L 38 8 L 38 2 z M 13.984375 4.9863281 A 1.0001 1.0001 0 0 0 13 6 L 13 13.839844 A 1.0001 1.0001 0 0 0 13.107422 14.464844 A 1.0001 1.0001 0 0 0 13.521484 14.890625 L 17.400391 17.800781 A 1.0003905 1.0003905 0 1 0 18.599609 16.199219 L 15 13.5 L 15 6 A 1.0001 1.0001 0 0 0 13.984375 4.9863281 z M 29.189453 19 C 28.961453 19.69 28.680234 20.355 28.365234 21 L 32 21 L 32 26 L 25 26 L 25 33 L 20 33 L 20 28.822266 C 19.354 29.084266 18.684 29.295656 18 29.472656 L 18 33 L 13 33 L 13 29.949219 C 12.322 29.907219 11.653 29.831031 11 29.707031 L 11 42 L 41 42 L 41 19 L 29.189453 19 z M 34 21 L 39 21 L 39 26 L 34 26 L 34 21 z M 27 28 L 32 28 L 32 33 L 27 33 L 27 28 z M 34 28 L 39 28 L 39 33 L 34 33 L 34 28 z M 13 35 L 18 35 L 18 40 L 13 40 L 13 35 z M 20 35 L 25 35 L 25 40 L 20 40 L 20 35 z M 27 35 L 32 35 L 32 40 L 27 40 L 27 35 z M 34 35 L 39 35 L 39 40 L 34 40 L 34 35 z"></path>
</svg>