<svg xmlns="http://www.w3.org/2000/svg" width="50" height="50" viewBox="0 0 50 50">
    <path style="text-indent:0;text-align:start;line-height:normal;text-transform:none;block-progression:tb;-inkscape-font-specification:Bitstream Vera Sans" d="M 40.21875 0.09375 C 39.704552 0.09370684 39.198792 0.26995776 38.8125 0.65625 A 1.0001 1.0001 0 0 0 38.5625 1.15625 L 36.65625 9.40625 L 18.90625 27.15625 L 13.25 21.5 A 1.0001 1.0001 0 0 0 12.53125 21.1875 A 1.0001 1.0001 0 0 0 11.84375 21.5 L 2.875 30.4375 C 1.5787422 31.733758 0.49678366 34.014651 0.125 37.03125 C -0.24678366 40.047849 0.1412332 43.77581 2 47.84375 A 1.0001 1.0001 0 0 0 2.5625 48.375 C 6.2411112 49.835779 9.9046741 50.189919 12.96875 49.90625 C 16.032826 49.622581 18.46898 48.78102 19.84375 47.40625 L 28.8125 38.46875 A 1.0001 1.0001 0 0 0 28.8125 37.0625 L 23.15625 31.40625 L 40.96875 13.59375 L 48.875 11.4375 A 1.0001 1.0001 0 0 0 49.3125 11.15625 C 50.086551 10.384179 50.085084 9.1163345 49.3125 8.34375 L 41.65625 0.65625 C 41.270214 0.26922442 40.732948 0.09379315 40.21875 0.09375 z M 40.375 2.21875 L 47.8125 9.65625 L 40.25 11.71875 A 1.016466 1.016466 0 0 0 40.0625 11.75 A 1.0045064 1.0045064 0 0 0 40.03125 11.78125 A 1.016466 1.016466 0 0 0 40 11.78125 A 1.0045064 1.0045064 0 0 0 39.84375 11.875 A 1.016466 1.016466 0 0 0 39.78125 11.90625 A 1.0045064 1.0045064 0 0 0 39.78125 11.9375 A 1.016466 1.016466 0 0 0 39.6875 12 A 1.0045064 1.0045064 0 0 0 39.5 12.21875 L 21.34375 30.375 A 1.0001 1.0001 0 0 0 20.71875 31 L 20.625 31.09375 C 20.52527 31.19348 19.972693 31.667693 19.28125 32.21875 C 18.589807 32.769807 17.698132 33.426821 16.84375 34.03125 C 16.241949 34.456992 15.741781 34.780106 15.21875 35.09375 C 15.532596 34.570193 15.823644 34.04017 16.25 33.4375 C 16.854429 32.583118 17.511443 31.722693 18.0625 31.03125 C 18.613557 30.339807 19.119018 29.787232 19.21875 29.6875 L 19.5625 29.3125 A 1.0054782 1.0054782 0 0 0 19.625 29.25 L 38.0625 10.78125 A 1.0118922 1.0118922 0 0 0 38.15625 10.71875 L 38.28125 10.59375 A 1.0001 1.0001 0 0 0 38.34375 10.53125 A 1.0118922 1.0118922 0 0 0 38.46875 10.34375 A 1.0001 1.0001 0 0 0 38.5625 10.125 L 38.5625 10.09375 A 1.0001 1.0001 0 0 0 38.59375 9.96875 L 40.375 2.21875 z M 41.46875 6.09375 C 41.39775 6.09375 41.33575 6.133 41.28125 6.1875 L 40.71875 8.5625 L 41.53125 9.34375 L 43.8125 8.71875 C 43.9215 8.60975 43.9215 8.4215 43.8125 8.3125 L 41.65625 6.1875 C 41.60175 6.133 41.53975 6.09375 41.46875 6.09375 z M 12.53125 23.625 L 17.5 28.59375 C 17.23751 28.894609 16.912949 29.263099 16.5 29.78125 C 15.927682 30.49937 15.258071 31.386382 14.625 32.28125 C 13.991929 33.176118 13.406006 34.062865 13 34.84375 C 12.796997 35.234193 12.627098 35.588895 12.53125 35.96875 C 12.48333 36.158677 12.4507 36.34599 12.46875 36.59375 C 12.4868 36.84151 12.584322 37.178072 12.84375 37.4375 C 13.103178 37.696928 13.43974 37.79445 13.6875 37.8125 C 13.93526 37.83055 14.122573 37.79792 14.3125 37.75 C 14.692355 37.65415 15.047057 37.515503 15.4375 37.3125 C 16.218385 36.906494 17.105132 36.289321 18 35.65625 C 18.894868 35.023179 19.78188 34.353568 20.5 33.78125 C 21.028647 33.359936 21.416571 33.04616 21.71875 32.78125 L 26.6875 37.75 L 18.4375 46 C 17.69127 46.74623 15.541924 47.650669 12.78125 47.90625 C 10.132503 48.151469 6.9093517 47.795388 3.6875 46.59375 C 2.1548344 43.034736 1.8119959 39.82092 2.125 37.28125 C 2.4514663 34.632349 3.4877578 32.668492 4.3125 31.84375 L 12.53125 23.625 z" color="#000" overflow="visible" enable-background="accumulate" font-family="Bitstream Vera Sans"></path>
</svg>