<svg xmlns="http://www.w3.org/2000/svg" version="1" viewBox="0 0 50 50" enable-background="new 0 0 50 50">
    <path style="text-indent:0;text-align:start;line-height:normal;text-transform:none;block-progression:tb;-inkscape-font-specification:Bitstream Vera Sans" d="M 24.09375 -0.125 C 22.165539 -0.1397192 19.946946 0.71902476 18.5625 2.96875 C 17.299683 4.9682105 16.883609 7.624043 17.625 10.03125 C 17.58408 10.10028 17.495191 10.152158 17.46875 10.21875 C 17.37251 10.461122 17.343083 10.694173 17.3125 11 C 17.172181 12.403188 17.724225 13.736882 18.375 14.65625 C 18.3874 14.67486 18.39364 14.66963 18.40625 14.6875 C 18.66847 15.059062 18.885566 15.117916 19.125 15.25 C 19.22476 15.683041 19.628958 16.872334 20.71875 18.28125 C 20.75602 18.527768 20.70464 18.676884 20.5625 18.84375 C 20.436659 18.991477 20.329091 19.032179 20.28125 19.0625 C 18.266688 19.442274 16.327418 20.139104 14.75 21.03125 C 13.326505 21.836341 12.170296 22.802256 11.53125 24 L 3 24 C 1.3545455 24 0 25.354545 0 27 L 0 28.6875 A 1.001098 1.001098 0 0 0 0.25 29.6875 L 4.125 36.5 A 1.0001 1.0001 0 0 0 5 37 L 9.4375 37 L 11.40625 49.15625 A 1.0001 1.0001 0 1 0 13.375 48.84375 L 11.3125 36 A 1.0001 1.0001 0 0 0 11.3125 35.9375 L 11.3125 35.875 A 1.0001 1.0001 0 0 0 11.25 35.59375 L 11 34 L 39 34 L 36.625 48.84375 A 1.0001 1.0001 0 1 0 38.59375 49.15625 L 40.5625 37 L 45 37 A 1.0001 1.0001 0 0 0 45.875 36.5 L 49.875 29.5 A 1.0001 1.0001 0 0 0 50 29 L 50 27 C 50 25.409206 48.727224 24.117119 47.15625 24.03125 C 47.108682 22.941042 46.958182 21.978865 46.53125 21.125 C 46.139614 20.341727 45.55515 19.672541 44.78125 19.09375 C 44.917545 18.752528 45 18.387263 45 18 C 45 16.35499 43.64501 15 42 15 C 40.35499 15 39 16.35499 39 18 C 39 19.64501 40.35499 21 42 21 C 42.519017 21 43.009672 20.861321 43.4375 20.625 C 44.075703 21.083636 44.462079 21.517908 44.71875 22.03125 C 44.966976 22.527703 45.103047 23.160549 45.15625 24 L 38.4375 24 C 37.791103 22.850398 36.64742 21.930413 35.28125 21.15625 C 33.671568 20.244097 31.706482 19.544235 29.625 19.125 C 29.625 19.125 29.59662 19.1261 29.59375 19.125 C 29.56279 19.11295 29.423462 19.04233 29.34375 18.96875 C 29.3002 18.92855 29.28409 18.92214 29.28125 18.90625 C 29.27845 18.89036 29.27705 18.82088 29.40625 18.5625 C 29.890996 17.90806 30.305829 17.232092 30.59375 16.65625 C 30.833119 16.177512 30.955196 15.826842 31.0625 15.46875 C 31.451755 15.164981 32.698099 14.101071 32.8125 12.15625 C 32.86716 11.227077 32.79007 10.666805 32.625 10.21875 C 32.60308 10.15926 32.5581 10.118157 32.53125 10.0625 C 32.834607 8.7888323 32.982035 6.9643438 32.5 5.125 C 32.229194 4.0916608 31.742704 3.0752201 30.875 2.34375 C 30.158866 1.7400525 29.150877 1.4976717 28.03125 1.53125 C 27.685773 1.0780676 27.250864 0.69736978 26.71875 0.4375 C 25.962456 0.06814691 25.057856 -0.11764041 24.09375 -0.125 z M 24.09375 1.875 C 24.767144 1.88014 25.390669 2.0287281 25.84375 2.25 C 26.296831 2.4712719 26.520786 2.7677345 26.5625 2.875 A 1.0001 1.0001 0 0 0 27.65625 3.5 C 28.634089 3.3370268 29.167704 3.515845 29.59375 3.875 C 30.019796 4.2341549 30.358306 4.8770892 30.5625 5.65625 C 30.970888 7.2145715 30.739217 9.3414392 30.53125 10 A 1.0001 1.0001 0 0 0 30.75 10.96875 C 30.76693 11.02684 30.855331 11.303115 30.8125 12.03125 C 30.74544 13.171298 29.59375 14.09375 29.59375 14.09375 A 1.0001 1.0001 0 0 0 29.21875 14.71875 C 29.20895 14.7676 29.042825 15.226851 28.78125 15.75 C 28.519675 16.273149 28.171907 16.910896 27.71875 17.5 A 1.0001 1.0001 0 0 0 27.59375 17.65625 C 27.322941 18.197868 27.221587 18.740886 27.3125 19.25 C 27.40341 19.759114 27.687304 20.177704 27.96875 20.4375 C 28.531642 20.957092 29.15625 21.0625 29.15625 21.0625 A 1.0001 1.0001 0 0 0 29.21875 21.09375 C 31.126035 21.475207 32.930064 22.12287 34.3125 22.90625 C 34.9191 23.24999 35.401566 23.6309 35.8125 24 L 14.03125 24 C 14.475134 23.574191 15.062303 23.138943 15.75 22.75 C 17.155723 21.95496 18.982722 21.331149 20.875 21 A 1.0001 1.0001 0 0 0 21.1875 20.875 C 21.1875 20.875 21.644413 20.615798 22.0625 20.125 C 22.480587 19.634202 22.917506 18.777943 22.6875 17.78125 A 1.0001 1.0001 0 0 0 22.4375 17.34375 C 21.222037 15.954649 21 14.53125 21 14.53125 A 1.0001 1.0001 0 0 0 20.4375 13.8125 C 20.2375 13.7125 20.003681 13.489896 20.03125 13.53125 A 1.0001 1.0001 0 0 0 20 13.53125 C 19.657091 13.051178 19.222628 11.773722 19.28125 11.1875 C 19.28865 11.11326 19.30464 11.13574 19.3125 11.09375 C 19.37178 11.04919 19.414392 11.06574 19.46875 11 C 19.681685 10.742497 19.6875 10.4625 19.6875 10.3125 A 1.0001 1.0001 0 0 0 19.625 9.90625 C 18.872879 8.0677321 19.224825 5.6544431 20.25 4.03125 C 21.265554 2.3809752 22.746961 1.8647192 24.09375 1.875 z M 19.09375 11.1875 C 19.05875 11.21859 19.07628 11.25552 19.03125 11.28125 C 18.961796 11.320938 18.896816 11.330339 18.84375 11.34375 C 18.88701 11.33465 19.007407 11.224677 19.09375 11.1875 z M 42 17 C 42.564128 17 43 17.435872 43 18 C 43 18.240417 42.91577 18.454983 42.78125 18.625 A 1.0001 1.0001 0 0 0 42.59375 18.8125 C 42.429328 18.931003 42.224326 19 42 19 C 41.435872 19 41 18.564128 41 18 C 41 17.435872 41.435872 17 42 17 z M 3 26 L 37.5625 26 A 1.0001 1.0001 0 0 0 38.15625 26 L 47 26 C 47.554545 26 48 26.445455 48 27 L 48 28 L 2 28 L 2 27 C 2 26.445455 2.4454545 26 3 26 z M 2.71875 30 L 47.28125 30 L 44.40625 35 L 40.875 35 L 41 34.25 C 41.203675 33.02795 40.260417 32 39.09375 32 L 10.90625 32 C 9.7506944 32 8.8140978 33.134587 9 34.25 L 9.125 35 L 5.59375 35 L 2.71875 30 z" color="#000" overflow="visible" enable-background="accumulate" font-family="Bitstream Vera Sans"></path>
</svg>