<svg xmlns="http://www.w3.org/2000/svg" version="1" width="50" height="50" viewBox="0 0 50 50">
    <path style="text-indent:0;text-align:start;line-height:normal;text-transform:none;block-progression:tb;-inkscape-font-specification:Bitstream Vera Sans" d="M 2.09375 0 C 0.93819444 0 0 0.93819444 0 2.09375 L 0 47.90625 C 0 49.061806 0.93819444 50 2.09375 50 L 15.90625 50 C 16.323754 50 16.704492 49.912733 17.03125 49.71875 C 17.345048 49.90648 17.701818 50 18.09375 50 L 31.90625 50 C 32.313823 50 32.678136 49.889299 33 49.6875 C 33.321864 49.889299 33.686177 50 34.09375 50 L 47.90625 50 C 49.061806 50 50 49.061806 50 47.90625 L 50 2.09375 C 50 0.93819444 49.061806 0 47.90625 0 L 42.90625 0 L 34.09375 0 C 32.938194 0 32 0.93819444 32 2.09375 L 32 9 C 31.967237 8.998474 31.939387 9 31.90625 9 L 26.59375 9 L 18.09375 9 C 18.060613 9 18.032763 8.998474 18 9 L 18 2.09375 C 18 0.93819444 17.061806 0 15.90625 0 L 2.09375 0 z M 2.09375 2 L 15.90625 2 C 15.950694 2 16 2.0493056 16 2.09375 L 16 30.1875 L 16 47.9375 C 15.984048 47.914062 15.93958 48 15.90625 48 L 2.09375 48 C 2.0493056 48 2 47.950694 2 47.90625 L 2 2.09375 C 2 2.0493056 2.0493056 2 2.09375 2 z M 34.09375 2 L 42.90625 2 L 47.90625 2 C 47.950694 2 48 2.0493056 48 2.09375 L 48 47.90625 C 48 47.950694 47.950694 48 47.90625 48 L 34.09375 48 C 34.049306 48 34 47.950694 34 47.90625 L 34 11.09375 L 34 2.09375 C 34 2.0493056 34.049306 2 34.09375 2 z M 3.71875 8 A 1.0043849 1.0043849 0 0 0 4 10 L 14 10 A 1.0001 1.0001 0 1 0 14 8 L 4 8 A 1.0001 1.0001 0 0 0 3.90625 8 A 1.001098 1.001098 0 0 0 3.8125 8 A 1.0043849 1.0043849 0 0 0 3.71875 8 z M 35.71875 8 A 1.0043849 1.0043849 0 0 0 36 10 L 46 10 A 1.0001 1.0001 0 1 0 46 8 L 36 8 A 1.0001 1.0001 0 0 0 35.90625 8 A 1.001098 1.001098 0 0 0 35.8125 8 A 1.0043849 1.0043849 0 0 0 35.71875 8 z M 18.09375 11 L 26.59375 11 L 31.90625 11 C 31.950694 11 32 11.049306 32 11.09375 L 32 47.90625 C 32 47.950694 31.950694 48 31.90625 48 L 18.09375 48 C 18.049306 48 18 47.950694 18 47.90625 L 18 30.1875 L 18 11.09375 C 18 11.049306 18.049306 11 18.09375 11 z M 19.71875 17 A 1.0043849 1.0043849 0 0 0 20 19 L 30 19 A 1.0001 1.0001 0 1 0 30 17 L 20 17 A 1.0001 1.0001 0 0 0 19.90625 17 A 1.001098 1.001098 0 0 0 19.8125 17 A 1.0043849 1.0043849 0 0 0 19.71875 17 z M 3.71875 37 A 1.0043849 1.0043849 0 0 0 4 39 L 14 39 A 1.0001 1.0001 0 1 0 14 37 L 4 37 A 1.0001 1.0001 0 0 0 3.90625 37 A 1.001098 1.001098 0 0 0 3.8125 37 A 1.0043849 1.0043849 0 0 0 3.71875 37 z M 35.71875 37 A 1.0043849 1.0043849 0 0 0 36 39 L 46 39 A 1.0001 1.0001 0 1 0 46 37 L 36 37 A 1.0001 1.0001 0 0 0 35.90625 37 A 1.001098 1.001098 0 0 0 35.8125 37 A 1.0043849 1.0043849 0 0 0 35.71875 37 z M 3.71875 41 A 1.0043849 1.0043849 0 0 0 4 43 L 14 43 A 1.0001 1.0001 0 1 0 14 41 L 4 41 A 1.0001 1.0001 0 0 0 3.90625 41 A 1.001098 1.001098 0 0 0 3.8125 41 A 1.0043849 1.0043849 0 0 0 3.71875 41 z M 35.71875 41 A 1.0043849 1.0043849 0 0 0 36 43 L 46 43 A 1.0001 1.0001 0 1 0 46 41 L 36 41 A 1.0001 1.0001 0 0 0 35.90625 41 A 1.001098 1.001098 0 0 0 35.8125 41 A 1.0043849 1.0043849 0 0 0 35.71875 41 z M 19.71875 42 A 1.0043849 1.0043849 0 0 0 20 44 L 30 44 A 1.0001 1.0001 0 1 0 30 42 L 20 42 A 1.0001 1.0001 0 0 0 19.90625 42 A 1.001098 1.001098 0 0 0 19.8125 42 A 1.0043849 1.0043849 0 0 0 19.71875 42 z"></path>
</svg>