<svg xmlns="http://www.w3.org/2000/svg" viewBox="0 0 50 50" enable-background="new 0 0 50 50">
    <path style="text-indent:0;text-align:start;line-height:normal;text-transform:none;block-progression:tb;-inkscape-font-specification:Bitstream Vera Sans" d="M 9 19 C 5.6981362 19 3 21.698136 3 25 C 3 28.301864 5.6981362 31 9 31 C 12.301864 31 15 28.301864 15 25 C 15 21.698136 12.301864 19 9 19 z M 25 19 C 21.698136 19 19 21.698136 19 25 C 19 28.301864 21.698136 31 25 31 C 28.301864 31 31 28.301864 31 25 C 31 21.698136 28.301864 19 25 19 z M 41 19 C 37.698136 19 35 21.698136 35 25 C 35 28.301864 37.698136 31 41 31 C 44.301864 31 47 28.301864 47 25 C 47 21.698136 44.301864 19 41 19 z M 9 21 C 11.220984 21 13 22.779016 13 25 C 13 27.220984 11.220984 29 9 29 C 6.7790164 29 5 27.220984 5 25 C 5 22.779016 6.7790164 21 9 21 z M 25 21 C 27.220984 21 29 22.779016 29 25 C 29 27.220984 27.220984 29 25 29 C 22.779016 29 21 27.220984 21 25 C 21 22.779016 22.779016 21 25 21 z M 41 21 C 43.220984 21 45 22.779016 45 25 C 45 27.220984 43.220984 29 41 29 C 38.779016 29 37 27.220984 37 25 C 37 22.779016 38.779016 21 41 21 z" color="#000" overflow="visible" enable-background="accumulate" font-family="Bitstream Vera Sans"></path>
</svg>