<svg xmlns="http://www.w3.org/2000/svg" viewBox="0 0 50 50" enable-background="new 0 0 50 50">
    <path style="text-indent:0;text-align:start;line-height:normal;text-transform:none;block-progression:tb;-inkscape-font-specification:Bitstream Vera Sans" d="M 8.8125 4 A 1.0001 1.0001 0 0 0 8 5 L 8 45 A 1.0001 1.0001 0 0 0 9 46 L 15 46 L 15 44 L 10 44 L 10 6 L 40 6 L 40 44 L 27 44 L 27 46 L 41 46 A 1.0001 1.0001 0 0 0 42 45 L 42 5 A 1.0001 1.0001 0 0 0 41 4 L 9 4 A 1.0001 1.0001 0 0 0 8.90625 4 A 1.0001 1.0001 0 0 0 8.8125 4 z M 15 16 L 15 18 L 35 18 L 35 16 L 15 16 z M 15 22 L 15 24 L 35 24 L 35 22 L 15 22 z M 21 30 C 20.228326 30 19.590586 30.427923 19.125 31.03125 C 18.429057 30.878688 17.679585 30.912582 17.0625 31.40625 C 16.448914 31.897119 16.288967 32.657047 16.3125 33.375 C 15.663691 33.729128 15.127314 34.267369 15 35.03125 C 14.873682 35.78916 15.213057 36.461515 15.6875 37 C 15.404478 37.711169 15.377385 38.503976 15.75 39.125 C 15.817842 39.238071 15.915839 39.312724 16 39.40625 L 16 48 A 1.0001 1.0001 0 0 0 17.59375 48.8125 L 21 46.25 L 24.40625 48.8125 A 1.0001 1.0001 0 0 0 26 48 L 26 39.40625 C 26.084161 39.312724 26.182158 39.238071 26.25 39.125 C 26.682968 38.403387 26.591045 37.663095 26.3125 37 C 26.786943 36.461515 27.126318 35.78916 27 35.03125 C 26.872686 34.267369 26.336309 33.729128 25.6875 33.375 C 25.71103 32.657047 25.551086 31.897119 24.9375 31.40625 C 24.320415 30.912582 23.570943 30.878688 22.875 31.03125 C 22.420335 30.455122 21.785486 30 21 30 z M 23 31.21875 C 23.04474 31.25195 23.124632 31.31213 23.09375 31.28125 L 23.0625 31.3125 C 23.043226 31.279413 23.020863 31.250949 23 31.21875 z M 21 32 C 21.319048 32 21.35345 32.06035 21.4375 32.3125 A 1.0001 1.0001 0 0 0 21.6875 32.71875 C 21.7375 32.76875 21.798986 32.836993 22.0625 32.96875 C 22.326014 33.100507 22.54375 33.09375 22.59375 33.09375 A 1.0001 1.0001 0 0 0 23.125 32.96875 C 23.271915 32.8806 23.543018 32.853164 23.6875 32.96875 C 23.857377 33.104651 23.855132 33.153355 23.75 33.46875 A 1.0001 1.0001 0 0 0 23.6875 33.8125 C 23.6875 33.950726 23.75847 33.969757 23.8125 34.09375 A 1.0001 1.0001 0 0 0 24.625 35 C 24.780678 35.02595 24.974054 35.219322 25 35.375 C 25.02891 35.548451 24.92816 35.755601 24.78125 35.84375 A 1.0001 1.0001 0 0 0 24.3125 36.6875 L 24.3125 37 A 1.0001 1.0001 0 0 0 24.5 37.59375 C 24.528 37.63108 24.56896 38.030903 24.53125 38.09375 C 24.4431 38.240665 24.235951 38.341409 24.0625 38.3125 A 1.0001 1.0001 0 0 0 23.09375 38.6875 A 1.0001 1.0001 0 0 0 23.09375 38.71875 C 23.0575 38.74679 23.07238 38.74267 23.03125 38.78125 C 23.01968 38.7921 23.01162 38.76963 23 38.78125 A 1.0001 1.0001 0 0 0 22.6875 39.5 C 22.6875 39.766667 22.6893 39.770241 22.46875 39.84375 A 1.0001 1.0001 0 0 0 22.34375 39.90625 C 22.337753 39.903096 22.3625 39.90625 22.3125 39.90625 C 22.24583 39.90625 22.049115 39.83037 21.90625 39.6875 A 1.0001 1.0001 0 0 0 21.1875 39.40625 L 21 39.40625 L 20.8125 39.40625 A 1.0001 1.0001 0 0 0 20.09375 39.6875 C 19.929452 39.851798 19.751777 39.917259 19.53125 39.84375 C 19.408892 39.776632 19.3125 39.640598 19.3125 39.5 C 19.3125 39.308333 19.21758 39.051906 19.09375 38.875 C 18.982299 38.715785 18.878573 38.638372 18.8125 38.59375 A 1.0001 1.0001 0 0 0 17.9375 38.3125 C 17.764049 38.34141 17.556899 38.24066 17.46875 38.09375 C 17.350337 37.896395 17.312533 37.820271 17.46875 37.625 A 1.0001 1.0001 0 0 0 17.6875 37 L 17.6875 36.6875 A 1.0001 1.0001 0 0 0 17.21875 35.84375 C 17.071835 35.755601 16.971091 35.548451 17 35.375 C 17.025946 35.219322 17.219322 35.025946 17.375 35 A 1.0001 1.0001 0 0 0 18.1875 34.09375 C 18.24153 33.969757 18.3125 33.950726 18.3125 33.8125 A 1.0001 1.0001 0 0 0 18.25 33.46875 C 18.144868 33.153355 18.142623 33.104651 18.3125 32.96875 C 18.456982 32.853164 18.728085 32.8806 18.875 32.96875 A 1.0001 1.0001 0 0 0 19.875 32.96875 A 1.0001 1.0001 0 0 0 19.90625 32.96875 A 1.0001 1.0001 0 0 0 19.9375 32.9375 A 1.0001 1.0001 0 0 0 20 32.90625 A 1.0001 1.0001 0 0 0 20.5625 32.3125 C 20.614927 32.155219 20.844444 32 21 32 z M 18 41.0625 C 18.225911 41.35159 18.49857 41.580678 18.84375 41.71875 A 1.0001 1.0001 0 0 0 18.875 41.75 C 19.634498 42.003166 20.361782 41.77963 20.96875 41.40625 C 20.97645 41.40155 20.99234 41.41105 21 41.40625 L 21.1875 41.40625 C 21.542171 41.613172 21.857979 41.90625 22.3125 41.90625 C 22.485735 41.90625 22.82849 41.83171 23.125 41.71875 C 23.139993 41.702365 23.166065 41.695683 23.1875 41.6875 C 23.20847 41.6783 23.22981 41.69759 23.25 41.6875 L 23.25 41.65625 C 23.55916 41.526224 23.805925 41.33252 24 41.09375 L 24 46 L 21.59375 44.1875 A 1.0001 1.0001 0 0 0 20.40625 44.1875 L 18 46 L 18 41.0625 z" color="#000" overflow="visible" enable-background="accumulate" font-family="Bitstream Vera Sans"></path>
</svg>