<svg xmlns="http://www.w3.org/2000/svg" width="50" height="50" viewBox="0 0 50 50">
    <path style="text-indent:0;text-align:start;line-height:normal;text-transform:none;block-progression:tb;-inkscape-font-specification:Bitstream Vera Sans" d="M 24.9375 0.03125 C 22.288798 0.07970858 20.423235 1.2207229 19.65625 2.96875 C 18.954626 4.567813 19.114926 6.4578608 19.5625 8.40625 C 19.296551 8.7993602 19.111505 9.3009174 19.1875 9.9375 C 19.27434 10.661726 19.481222 11.202621 19.8125 11.625 C 19.944295 11.793039 20.146521 11.796077 20.3125 11.90625 C 20.429355 12.451913 20.556109 13.019257 20.78125 13.46875 C 20.927909 13.761553 21.078005 14.017986 21.25 14.25 C 21.28697 14.29987 21.369596 14.3273 21.40625 14.375 C 21.41065 14.931879 21.38595 15.425856 21.34375 16 C 21.223785 16.261558 20.994006 16.515109 20.46875 16.8125 C 19.904636 17.131892 19.123446 17.454895 18.28125 17.875 C 16.906364 18.560821 15.390783 19.687922 14.59375 21.59375 C 14.267708 21.383974 13.741824 21.159787 13.65625 20.96875 C 13.61603 20.409809 13.58968 19.920658 13.59375 19.375 C 13.63044 19.32728 13.713003 19.29987 13.75 19.25 C 13.922134 19.017967 14.072061 18.761613 14.21875 18.46875 C 14.443937 18.019165 14.570661 17.452185 14.6875 16.90625 C 14.85319 16.796177 15.055827 16.792909 15.1875 16.625 C 15.518471 16.202948 15.725104 15.661381 15.8125 14.9375 C 15.88842 14.301561 15.703862 13.79991 15.4375 13.40625 C 15.885068 11.456772 16.044711 9.5707218 15.34375 7.96875 C 14.57749 6.2175431 12.712241 5.0484776 10.0625 5 C 8.9266331 5 7.9047194 5.3472236 7.1875 6.0625 C 6.2118712 6.2630993 5.3979128 6.7264543 4.90625 7.40625 C 4.3692804 8.148689 4.1589231 9.0095342 4.09375 9.84375 C 3.98312 11.259814 4.2662181 12.557232 4.53125 13.46875 C 4.289607 13.855857 4.1153595 14.333206 4.1875 14.9375 C 4.274335 15.661726 4.4812224 16.202621 4.8125 16.625 C 4.9380712 16.785103 5.1241534 16.798578 5.28125 16.90625 C 5.3945442 17.447534 5.5314372 17.988075 5.75 18.4375 C 5.8923757 18.730263 6.049238 19.016332 6.21875 19.25 C 6.255184 19.30022 6.3386585 19.32674 6.375 19.375 C 6.37937 19.931879 6.354703 20.425856 6.3125 21 C 6.1723747 21.317402 5.9525799 21.588403 5.46875 21.875 C 4.9497433 22.182434 4.2049999 22.475283 3.4375 22.875 C 1.9025003 23.674434 0.16862641 25.12611 0 27.9375 A 1.0001 1.0001 0 0 0 0 28 L 0 39 A 1.0001 1.0001 0 0 0 0.03125 39.1875 C 0.03125 39.1875 0.46607579 41.264293 2.40625 43.5625 C 4.3464242 45.860707 7.7944216 48.471932 13.75 49.9375 A 1.0001 1.0001 0 0 0 15 48.96875 L 15 48.0625 L 15 48 C 15.07887 46.910127 15.429614 46.218765 15.96875 45.65625 C 16.51955 45.081565 17.307684 44.6398 18.1875 44.25 C 19.067316 43.8602 20.028113 43.544071 20.90625 43.09375 C 21.784387 42.643429 22.674579 42.012201 23.0625 40.96875 A 1.0001 1.0001 0 0 0 23.125 40.71875 C 23.21673 39.702225 23.15625 39.002757 23.15625 38.15625 A 1.0001 1.0001 0 0 0 22.625 37.25 C 22.790122 37.33677 22.68682 37.28171 22.59375 37.15625 C 22.50068 37.030787 22.394865 36.851812 22.28125 36.625 C 22.05402 36.171377 21.85886 35.590968 21.8125 35.15625 A 1.0001 1.0001 0 0 0 21 34.28125 C 20.9984 34.27925 21.0018 34.25243 21 34.25 C 20.95116 34.18336 20.811414 33.980013 20.75 33.46875 C 20.72938 33.296672 20.785045 33.220712 20.8125 33.1875 A 1.0001 1.0001 0 0 0 21.1875 32.125 C 20.643051 30.029321 20.608171 28.149563 21.125 26.96875 C 21.638888 25.794657 22.595623 25.051138 24.9375 25 C 24.95519 25 24.95132 24.999828 24.96875 25 C 26.065053 25.01083 26.68129 25.355747 26.78125 25.53125 A 1.0001 1.0001 0 0 0 27.5 26.03125 C 28.230191 26.132777 28.604063 26.375283 28.875 26.75 C 29.145937 27.124717 29.292164 27.682994 29.34375 28.34375 C 29.446922 29.665262 29.0565 31.328731 28.8125 32.0625 A 1.0001 1.0001 0 0 0 29.1875 33.1875 C 29.20804 33.220886 29.23966 33.29607 29.21875 33.46875 C 29.15507 33.99888 29.044412 34.224578 29 34.28125 A 1.0001 1.0001 0 0 0 28.1875 35.15625 C 28.14025 35.599303 27.970776 36.171299 27.75 36.625 C 27.639612 36.85185 27.527427 37.063664 27.4375 37.1875 C 27.392535 37.249418 27.330256 37.301223 27.3125 37.3125 A 1.0001 1.0001 0 0 0 26.875 38.15625 C 26.875 39.000963 26.81445 39.701472 26.90625 40.71875 A 1.0001 1.0001 0 0 0 26.96875 40.96875 C 27.357123 42.010398 28.24934 42.643317 29.125 43.09375 C 30.00066 43.544183 30.936459 43.860353 31.8125 44.25 C 32.688541 44.639647 33.483029 45.081854 34.03125 45.65625 C 34.567862 46.218483 34.92132 46.909233 35 48 L 35 48.0625 L 35 48.96875 A 1.0001 1.0001 0 0 0 36.25 49.9375 C 42.205578 48.471932 45.653576 45.860707 47.59375 43.5625 C 49.533924 41.264293 49.96875 39.1875 49.96875 39.1875 A 1.0001 1.0001 0 0 0 50 39 L 50 28 A 1.0001 1.0001 0 0 0 50 27.9375 C 49.831374 25.12611 48.097449 23.674543 46.5625 22.875 C 45.795025 22.475229 45.050234 22.182539 44.53125 21.875 C 44.047441 21.588305 43.827689 21.317681 43.6875 21 C 43.64531 20.42655 43.62063 19.931858 43.625 19.375 C 43.66137 19.32672 43.744787 19.30023 43.78125 19.25 C 43.950901 19.016311 44.107596 18.730322 44.25 18.4375 C 44.468607 17.987984 44.605471 17.447808 44.71875 16.90625 C 44.875585 16.798681 45.062045 16.784979 45.1875 16.625 C 45.518471 16.202948 45.725104 15.661381 45.8125 14.9375 C 45.88464 14.333206 45.710393 13.855857 45.46875 13.46875 C 45.733286 12.557536 46.016872 11.259716 45.90625 9.84375 C 45.841081 9.0095919 45.630549 8.1486935 45.09375 7.40625 C 44.602243 6.7264501 43.787962 6.2631265 42.8125 6.0625 C 42.095281 5.3472236 41.073367 5 39.9375 5 C 37.287759 5.048478 35.42251 6.2175431 34.65625 7.96875 C 33.955289 9.5707218 34.114932 11.456772 34.5625 13.40625 C 34.296551 13.79936 34.111505 14.300917 34.1875 14.9375 C 34.27434 15.661726 34.481222 16.202621 34.8125 16.625 C 34.944295 16.793039 35.146521 16.796077 35.3125 16.90625 C 35.429355 17.451913 35.556109 18.019257 35.78125 18.46875 C 35.927909 18.761553 36.078005 19.017986 36.25 19.25 C 36.28697 19.29987 36.369596 19.3273 36.40625 19.375 C 36.41055 19.921181 36.38328 20.409878 36.34375 20.96875 C 36.2583 21.159233 35.732363 21.383969 35.40625 21.59375 C 34.612451 19.688746 33.119771 18.561075 31.75 17.875 C 30.910937 17.454739 30.124468 17.131723 29.5625 16.8125 C 29.039242 16.515266 28.807899 16.262504 28.6875 16 C 28.6453 15.425856 28.62063 14.931879 28.625 14.375 C 28.66137 14.32672 28.744787 14.30023 28.78125 14.25 C 28.950901 14.016311 29.107596 13.730322 29.25 13.4375 C 29.468607 12.987984 29.605471 12.447808 29.71875 11.90625 C 29.875585 11.798681 30.062045 11.784979 30.1875 11.625 C 30.518471 11.202948 30.725104 10.661381 30.8125 9.9375 C 30.88464 9.3332059 30.710393 8.855857 30.46875 8.46875 C 30.733286 7.557536 31.016872 6.2597159 30.90625 4.84375 C 30.841081 4.0095919 30.630549 3.1486935 30.09375 2.40625 C 29.602243 1.7264501 28.787962 1.2631265 27.8125 1.0625 C 27.092557 0.3492841 26.06677 0.03125 24.9375 0.03125 z M 24.9375 2.03125 C 24.95622 2.03125 24.95037 2.031045 24.96875 2.03125 C 25.965744 2.042374 26.497428 2.3230383 26.5625 2.4375 A 1.0001 1.0001 0 0 0 27.3125 2.9375 C 27.965416 3.028276 28.231831 3.2660685 28.46875 3.59375 C 28.705669 3.9214315 28.890794 4.4021581 28.9375 5 C 29.03091 6.1956837 28.659087 7.7080525 28.4375 8.375 A 1.0001 1.0001 0 0 0 28.78125 9.46875 C 28.795284 9.4869912 28.82978 9.542755 28.8125 9.6875 C 28.75719 10.145633 28.628055 10.32747 28.59375 10.375 A 1.0001 1.0001 0 0 0 27.875 11.25 C 27.83277 11.64448 27.636941 12.152395 27.4375 12.5625 C 27.33778 12.767553 27.23513 12.953845 27.15625 13.0625 C 27.07737 13.171155 26.976852 13.218992 27.15625 13.125 A 1.0001 1.0001 0 0 0 26.625 14 C 26.625 14.775 26.60273 15.435017 26.6875 16.375 A 1.0001 1.0001 0 0 0 26.75 16.625 C 27.094034 17.548801 27.822468 18.142129 28.5625 18.5625 C 29.302532 18.982871 30.099813 19.283636 30.84375 19.65625 C 32.331623 20.401479 33.538443 21.209465 33.90625 23.3125 A 1.0001 1.0001 0 0 0 35.28125 24.0625 C 36.474175 23.577031 37.769414 23.002418 38.28125 21.625 A 1.0001 1.0001 0 0 0 38.34375 21.375 C 38.42852 20.435017 38.40625 19.775 38.40625 19 A 1.0001 1.0001 0 0 0 37.96875 18.15625 C 37.974529 18.160218 37.938609 18.157054 37.9375 18.15625 C 37.91364 18.138536 37.878177 18.108944 37.84375 18.0625 C 37.76178 17.95192 37.665216 17.767572 37.5625 17.5625 C 37.357068 17.152357 37.166292 16.63539 37.125 16.25 A 1.0001 1.0001 0 0 0 36.40625 15.375 C 36.372 15.32755 36.242391 15.145302 36.1875 14.6875 C 36.17028 14.543261 36.205003 14.487034 36.21875 14.46875 A 1.0001 1.0001 0 0 0 36.59375 13.4375 C 36.09576 11.519717 36.03726 9.8075431 36.5 8.75 C 36.959825 7.6991191 37.807266 7.0470373 39.9375 7 C 39.95586 7 39.95071 6.9997921 39.96875 7 C 40.956837 7.011386 41.494299 7.3175345 41.5625 7.4375 A 1.0001 1.0001 0 0 0 42.3125 7.9375 C 42.965416 8.028276 43.231831 8.2660685 43.46875 8.59375 C 43.705669 8.9214315 43.890794 9.4021581 43.9375 10 C 44.03091 11.195684 43.659087 12.708052 43.4375 13.375 A 1.0001 1.0001 0 0 0 43.78125 14.46875 C 43.795284 14.486991 43.82978 14.542755 43.8125 14.6875 C 43.75719 15.145633 43.628055 15.32747 43.59375 15.375 A 1.0001 1.0001 0 0 0 42.875 16.25 C 42.83277 16.64448 42.636941 17.152395 42.4375 17.5625 C 42.33778 17.767553 42.23513 17.953845 42.15625 18.0625 C 42.07737 18.171155 41.976852 18.218992 42.15625 18.125 A 1.0001 1.0001 0 0 0 41.625 19 C 41.625 19.775 41.60271 20.435898 41.6875 21.375 A 1.0001 1.0001 0 0 0 41.75 21.625 C 42.094966 22.552276 42.822234 23.173602 43.53125 23.59375 C 44.240266 24.013898 44.968475 24.283021 45.625 24.625 C 46.921638 25.300408 47.854289 25.939974 48 28 C 48.0018 28.02608 47.9984 28.03596 48 28.0625 L 48 38.90625 C 47.97303 39.036163 47.656794 40.39275 46.0625 42.28125 C 44.523224 44.104579 41.725741 46.219653 36.9375 47.625 C 36.783367 46.23276 36.242993 45.092459 35.46875 44.28125 C 34.632659 43.40524 33.600709 42.871478 32.625 42.4375 C 31.649291 42.003522 30.718902 41.666223 30.03125 41.3125 C 29.382148 40.978607 29.053958 40.672161 28.90625 40.34375 C 28.85696 39.684755 28.8703 39.140918 28.875 38.5 C 28.91505 38.44731 28.991142 38.398981 29.03125 38.34375 C 29.211823 38.095086 29.378138 37.81465 29.53125 37.5 C 29.771602 37.006069 29.942338 36.407413 30.0625 35.8125 C 30.234478 35.698089 30.42481 35.675698 30.5625 35.5 C 30.909338 35.057422 31.125431 34.49562 31.21875 33.71875 C 31.29787 33.065315 31.106795 32.563253 30.84375 32.15625 C 31.132656 31.172541 31.464357 29.732336 31.34375 28.1875 C 31.27371 27.290381 31.039594 26.383251 30.46875 25.59375 C 29.948274 24.87391 29.098694 24.37218 28.0625 24.15625 C 27.308196 23.356081 26.192631 23 24.9375 23 C 22.076758 23.05249 20.101671 24.281813 19.28125 26.15625 C 18.524539 27.885128 18.69288 29.964679 19.1875 32.09375 C 18.899434 32.505631 18.698876 33.031319 18.78125 33.71875 C 18.8746 34.495869 19.090597 35.088871 19.4375 35.53125 C 19.579401 35.712205 19.791037 35.696644 19.96875 35.8125 C 20.092596 36.410979 20.221658 37.037977 20.46875 37.53125 C 20.626385 37.845938 20.816753 38.127963 21 38.375 C 21.03759 38.42568 21.119102 38.45167 21.15625 38.5 C 21.16075 39.140863 21.17444 39.684366 21.125 40.34375 C 20.978142 40.670668 20.651307 40.978501 20 41.3125 C 19.310012 41.666335 18.354184 42.003675 17.375 42.4375 C 16.395816 42.871325 15.370575 43.405529 14.53125 44.28125 C 13.754012 45.092192 13.217314 46.23194 13.0625 47.625 C 8.2742593 46.219653 5.4767761 44.104579 3.9375 42.28125 C 2.343206 40.39275 2.0269695 39.036163 2 38.90625 L 2 28.0625 L 2 28 C 2.1457103 25.939974 3.0784122 25.300268 4.375 24.625 C 5.0315001 24.283092 5.7597567 24.013722 6.46875 23.59375 C 7.1777433 23.173778 7.9049637 22.552104 8.25 21.625 A 1.0001 1.0001 0 0 0 8.3125 21.375 C 8.3972702 20.435017 8.375 19.775 8.375 19 A 1.0001 1.0001 0 0 0 7.9375 18.15625 C 7.9412122 18.160367 7.9093233 18.15696 7.90625 18.15625 C 7.8878729 18.138008 7.8766746 18.107888 7.84375 18.0625 C 7.7647308 17.953574 7.6622493 17.767612 7.5625 17.5625 C 7.3630013 17.152276 7.1672008 16.643874 7.125 16.25 A 1.0001 1.0001 0 0 0 6.40625 15.375 C 6.3719973 15.327545 6.2423906 15.145302 6.1875 14.6875 C 6.1702204 14.542755 6.2047164 14.486991 6.21875 14.46875 A 1.0001 1.0001 0 0 0 6.5625 13.375 C 6.3406489 12.708573 5.9690962 11.195568 6.0625 10 C 6.1092019 9.4022158 6.2630008 8.921436 6.5 8.59375 C 6.7369992 8.266064 7.0342719 8.0282933 7.6875 7.9375 A 1.0001 1.0001 0 0 0 8.4375 7.4375 C 8.5057009 7.3175345 9.0431632 7.0113855 10.03125 7 C 10.04486 7.000249 10.04899 6.9997018 10.0625 7 C 12.192734 7.047037 13.040175 7.6991191 13.5 8.75 C 13.96274 9.8075431 13.90424 11.519717 13.40625 13.4375 A 1.0001 1.0001 0 0 0 13.8125 14.5 C 13.82653 14.535895 13.824596 14.586178 13.8125 14.6875 C 13.75719 15.145633 13.628055 15.32747 13.59375 15.375 A 1.0001 1.0001 0 0 0 12.875 16.25 C 12.83368 16.636003 12.642872 17.152477 12.4375 17.5625 C 12.334814 17.767512 12.238084 17.952189 12.15625 18.0625 C 12.07442 18.172811 11.950036 18.216669 12.125 18.125 A 1.0001 1.0001 0 0 0 11.59375 19 C 11.59375 19.775833 11.57043 20.435264 11.65625 21.375 A 1.0001 1.0001 0 0 0 11.71875 21.625 C 12.230291 23.003188 13.525825 23.577031 14.71875 24.0625 A 1.0001 1.0001 0 0 0 16.09375 23.3125 C 16.462593 21.210434 17.661643 20.40179 19.15625 19.65625 C 19.903554 19.28348 20.726364 18.982827 21.46875 18.5625 C 22.211136 18.142173 22.937101 17.550522 23.28125 16.625 A 1.0001 1.0001 0 0 0 23.34375 16.375 C 23.42852 15.435017 23.40625 14.775 23.40625 14 A 1.0001 1.0001 0 0 0 22.96875 13.15625 C 22.974529 13.160217 22.938609 13.157054 22.9375 13.15625 C 22.91364 13.138536 22.878177 13.108944 22.84375 13.0625 C 22.76178 12.95192 22.665216 12.767572 22.5625 12.5625 C 22.357068 12.152357 22.166292 11.63539 22.125 11.25 A 1.0001 1.0001 0 0 0 21.40625 10.375 C 21.371997 10.327545 21.242391 10.145302 21.1875 9.6875 C 21.170281 9.543261 21.205003 9.4870343 21.21875 9.46875 A 1.0001 1.0001 0 0 0 21.59375 8.4375 C 21.095702 6.5199665 21.037985 4.8342229 21.5 3.78125 C 21.959089 2.7349449 22.8064 2.0783175 24.9375 2.03125 z" color="#000" overflow="visible" enable-background="accumulate" font-family="Bitstream Vera Sans"></path>
</svg>