<svg xmlns="http://www.w3.org/2000/svg" viewBox="0 0 50 50" enable-background="new 0 0 50 50">
    <path style="text-indent:0;text-align:start;line-height:normal;text-transform:none;block-progression:tb;-inkscape-font-specification:Bitstream Vera Sans" d="M 27 4 C 22.044681 4 18.45107 5.9446717 16.5625 8.8125 C 14.78852 11.506321 14.617935 14.931831 15.8125 18.09375 C 15.369274 18.641701 15.000645 19.351487 15.09375 20.46875 A 1.0001 1.0001 0 0 0 15.09375 20.53125 C 15.260194 21.751838 15.627277 22.608747 16.09375 23.21875 C 16.321954 23.517171 16.654456 23.522223 16.9375 23.6875 C 17.105078 24.769435 17.4272 25.866503 17.875 26.75 C 18.128614 27.250374 18.381049 27.691256 18.65625 28.0625 C 18.77749 28.226052 18.937406 28.332099 19.0625 28.46875 C 19.05052 29.322647 18.99815 30.092831 18.9375 30.90625 L 18.90625 30.90625 A 1.0001 1.0001 0 0 0 18.40625 31.03125 C 18.40625 31.03125 16.70738 32.099966 15.3125 34.0625 C 9.128731 35.491361 5 40.457731 5 45 A 1.0001 1.0001 0 0 0 6 46 L 17.90625 46 L 18.09375 46 L 22.65625 46 A 1.0001 1.0001 0 0 0 23.25 46 L 26.8125 46 A 1.0001 1.0001 0 0 0 27.40625 46 L 44 46 A 1.0001 1.0001 0 0 0 45 45 C 45 39.522713 40.057758 35.10794 34.59375 34.15625 C 34.336408 33.810845 33.277827 32.433593 31.78125 31.34375 A 1.0001 1.0001 0 0 0 31.71875 31.28125 C 31.66844 31.245276 31.613771 31.222749 31.5625 31.1875 A 1.0001 1.0001 0 0 0 30.9375 30.96875 C 30.877148 30.126094 30.853961 29.331787 30.84375 28.5 C 30.95326 28.368962 31.112536 28.276944 31.21875 28.125 C 31.484284 27.745139 31.756223 27.282347 32 26.78125 C 32.428658 25.90012 32.765089 24.859392 32.96875 23.84375 C 33.289793 23.680563 33.657315 23.669281 33.90625 23.34375 C 34.387755 22.71409 34.669748 21.820277 34.78125 20.59375 C 34.84194 19.865459 34.79169 19.21012 34.5625 18.65625 C 34.48966 18.480219 34.364491 18.317285 34.25 18.15625 C 34.573106 17.455626 34.779962 16.655864 34.875 15.75 C 35.010942 14.454246 34.95893 13.006251 34.59375 11.59375 C 34.228567 10.181249 33.553386 8.8049704 32.46875 7.75 C 31.531322 6.8382108 30.214897 6.2808892 28.6875 6.125 L 27.90625 4.5625 A 1.0001 1.0001 0 0 0 27 4 z M 26.40625 6.0625 L 27.09375 7.4375 A 1.0001 1.0001 0 0 0 28 8 C 29.391667 8 30.350261 8.4643454 31.09375 9.1875 C 31.837239 9.9106546 32.358933 10.943751 32.65625 12.09375 C 32.953567 13.243749 33.017183 14.473879 32.90625 15.53125 C 32.795317 16.588621 32.463193 17.468906 32.21875 17.78125 A 1.0001 1.0001 0 0 0 32.6875 19.34375 C 32.682461 19.352381 32.66945 19.36263 32.6875 19.40625 C 32.75831 19.57738 32.851809 19.934541 32.8125 20.40625 C 32.724 21.379723 32.480995 21.90466 32.3125 22.125 C 32.144005 22.34534 32.060417 22.3125 32.09375 22.3125 A 1.0001 1.0001 0 0 0 31.125 23.15625 C 30.997366 24.007144 30.599946 25.058444 30.1875 25.90625 C 29.981277 26.330153 29.778216 26.704861 29.59375 26.96875 C 29.409284 27.232639 29.213669 27.400225 29.3125 27.34375 A 1.0001 1.0001 0 0 0 28.8125 28.1875 C 28.8125 29.544995 28.90888 30.412072 29 31.8125 A 1.0001 1.0001 0 0 0 29 31.90625 A 1.0001 1.0001 0 0 0 29 31.9375 A 1.0001 1.0001 0 0 0 29 32 C 29 32.099801 28.99076 32.205667 28.9375 32.3125 C 28.883907 32.42021 28.790144 32.523988 28.65625 32.65625 C 28.394829 32.914483 27.980881 33.161151 27.53125 33.375 C 27.128796 33.566411 26.745618 33.709433 26.4375 33.8125 C 26.387489 33.829082 26.327579 33.860298 26.28125 33.875 C 26.08588 33.935518 25.874791 33.984157 25.8125 34 L 24.1875 34 C 24.019852 33.957361 23.273658 33.757822 22.46875 33.375 C 22.019119 33.161151 21.605171 32.914483 21.34375 32.65625 C 21.082329 32.398017 21 32.199603 21 32 A 1.0001 1.0001 0 0 0 20.9375 31.59375 C 21.024143 30.300143 21.09375 29.488551 21.09375 28.09375 A 1.0001 1.0001 0 0 0 20.59375 27.21875 C 20.66809 27.26123 20.471674 27.13188 20.28125 26.875 C 20.090826 26.618119 19.865136 26.255876 19.65625 25.84375 C 19.238478 25.019497 18.86378 23.96031 18.78125 23.09375 A 1.0001 1.0001 0 0 0 17.875 22.1875 C 17.909871 22.196562 17.8875 22.1875 17.8125 22.1875 C 17.772249 22.165347 17.720485 22.11525 17.65625 22.03125 C 17.478579 21.798911 17.230743 21.233252 17.09375 20.3125 C 17.09205 20.29245 17.09475 20.30081 17.09375 20.28125 C 17.09155 20.26585 17.09585 20.26562 17.09375 20.25 C 17.07772 19.491782 17.548752 19.071665 17.46875 19.125 A 1.0001 1.0001 0 0 0 17.8125 17.90625 C 16.584318 15.131469 16.76357 12.163422 18.25 9.90625 C 19.663557 7.7597368 22.330189 6.2144401 26.40625 6.0625 z M 18.25 33.65625 C 18.361858 34.123236 18.496058 34.6104 18.65625 35.1875 C 19.028744 36.529432 19.50982 38.091788 20 39.59375 C 20.604962 41.447416 21.123059 42.927385 21.5 44 L 18.46875 44 L 15.4375 40.1875 L 17.375 38.8125 A 1.0001 1.0001 0 0 0 17.78125 37.75 L 17.0625 35.03125 C 17.478357 34.461006 17.893505 33.986563 18.25 33.65625 z M 31.6875 33.90625 C 32.253012 34.456494 32.686561 34.984419 32.90625 35.25 L 32.21875 37.75 A 1.0001 1.0001 0 0 0 32.625 38.8125 L 34.5625 40.1875 L 31.53125 44 L 28.5 44 C 28.876941 42.927385 29.395038 41.447416 30 39.59375 C 30.49018 38.091788 30.971256 36.529432 31.34375 35.1875 C 31.477886 34.704265 31.585484 34.310877 31.6875 33.90625 z M 20.53125 34.5625 C 20.885883 34.814847 21.261919 35.014815 21.625 35.1875 C 22.163014 35.443385 22.685325 35.622994 23.09375 35.75 L 24 38 L 22.875 41.875 C 22.56821 40.977218 22.26071 40.05485 21.90625 38.96875 C 21.42143 37.483212 20.921256 35.948693 20.5625 34.65625 C 20.552503 34.620236 20.541005 34.598273 20.53125 34.5625 z M 29.46875 34.5625 C 29.458995 34.598273 29.447497 34.620236 29.4375 34.65625 C 29.078744 35.948693 28.57857 37.483212 28.09375 38.96875 C 27.73929 40.05485 27.43179 40.977218 27.125 41.875 L 26 38 L 26.90625 35.75 C 27.314675 35.622994 27.836986 35.443385 28.375 35.1875 C 28.557191 35.100848 28.753436 35.010615 28.9375 34.90625 C 29.043253 34.846893 29.145766 34.785304 29.25 34.71875 C 29.325096 34.670422 29.395108 34.614902 29.46875 34.5625 z M 15.25 36.0625 L 15.65625 37.59375 L 13.40625 39.1875 A 1.0001 1.0001 0 0 0 13.21875 40.625 L 15.90625 44 L 7.21875 44 C 7.7681291 40.959526 10.675858 37.311018 15.25 36.0625 z M 34.71875 36.15625 C 38.734167 37.045509 42.171597 40.310562 42.75 44 L 34.09375 44 L 36.78125 40.625 A 1.0001 1.0001 0 0 0 37 40.1875 A 1.0001 1.0001 0 0 0 37 40.0625 A 1.0001 1.0001 0 0 0 36.59375 39.1875 L 34.34375 37.59375 L 34.71875 36.15625 z"></path>
</svg>