<svg xmlns="http://www.w3.org/2000/svg" viewBox="0 0 50 50" enable-background="new 0 0 50 50">
    <path style="text-indent:0;text-align:start;line-height:normal;text-transform:none;block-progression:tb;-inkscape-font-specification:Bitstream Vera Sans" d="M 25 3 C 19.466667 3 15 7.4666667 15 13 L 15 19 C 15 22.238538 16.587384 25.145698 19 26.96875 L 19 31.5 C 19 31.604167 18.97872 31.695038 18.71875 31.9375 C 18.45878 32.179962 17.990362 32.504819 17.375 32.8125 C 16.144276 33.427862 14.367952 34.060566 12.5625 34.9375 C 10.757048 35.814434 8.8859096 36.924205 7.4375 38.53125 C 5.9890904 40.138295 5 42.28931 5 45 L 5 46 L 6 46 L 44 46 L 45 46 L 45 45 C 45 42.266667 44.012668 40.105543 42.5625 38.5 C 41.112332 36.894457 39.243419 35.801761 37.4375 34.9375 C 35.631581 34.073239 33.852453 33.423304 32.625 32.8125 C 32.011274 32.507098 31.539679 32.212675 31.28125 31.96875 C 31.022821 31.724825 31 31.625926 31 31.5 L 31 26.96875 C 33.412616 25.145698 35 22.238538 35 19 L 35 13 C 35 7.4666667 30.533333 3 25 3 z M 25 5 C 29.466667 5 33 8.5333333 33 13 L 33 19 C 33 21.755914 31.56015 24.24115 29.4375 25.65625 L 29 25.96875 L 29 26.5 L 29 31.5 C 29 32.274074 29.399054 32.958769 29.90625 33.4375 C 30.413446 33.916231 31.051226 34.277277 31.75 34.625 C 33.147547 35.320446 34.868419 35.939261 36.5625 36.75 C 38.256581 37.560739 39.887668 38.543043 41.0625 39.84375 C 42.037128 40.922802 42.607158 42.302945 42.8125 44 L 7.1875 44 C 7.3942494 42.324898 7.9635022 40.955674 8.9375 39.875 C 10.11409 38.569545 11.742952 37.573066 13.4375 36.75 C 15.132048 35.926934 16.855724 35.290888 18.25 34.59375 C 18.947138 34.245181 19.588095 33.877851 20.09375 33.40625 C 20.599405 32.934649 21 32.270833 21 31.5 L 21 26.5 L 21 25.96875 L 20.5625 25.65625 C 18.43985 24.24115 17 21.755914 17 19 L 17 13 C 17 8.5333333 20.533333 5 25 5 z" color="#000" overflow="visible" enable-background="accumulate" font-family="Bitstream Vera Sans"></path>
</svg>