<svg xmlns="http://www.w3.org/2000/svg" version="1" width="50" height="50" viewBox="0 0 50 50">
    <path d="M 9.8125 0 A 1.0001 1.0001 0 0 0 9 1 L 9 3 A 1.0001 1.0001 0 1 0 11 3 L 11 2 L 46 2 L 46 25 L 41.90625 25 L 43 23 L 41.90625 21 L 33 21 L 33 25 L 22 25 A 1.0001 1.0001 0 0 0 21.90625 25 A 1.001098 1.001098 0 0 0 22 27 L 48 27 L 48 28 L 22 28 A 1.0001 1.0001 0 1 0 22 30 L 49 30 A 1.0001 1.0001 0 0 0 50 29 L 50 26 A 1.0001 1.0001 0 0 0 49 25 L 48 25 L 48 1 A 1.0001 1.0001 0 0 0 47 0 L 10 0 A 1.0001 1.0001 0 0 0 9.90625 0 A 1.0001 1.0001 0 0 0 9.8125 0 z M 12 5 C 8.6981362 5 6 7.6981362 6 11 C 6 14.301864 8.6981362 17 12 17 C 15.301864 17 18 14.301864 18 11 C 18 7.6981362 15.301864 5 12 5 z M 12 17 L 9.6875 17 C 8.9348333 17 7.8360353 17.0933 6.8125 17.78125 C 5.7889647 18.4692 5 19.794833 5 21.6875 L 5 32.4375 C 3.241924 33.214552 2 34.963082 2 37 C 2 38.515649 2.7069761 39.862268 3.78125 40.78125 C 1.5446928 41.954168 0 44.315468 0 47 L 0 49 A 1.0001 1.0001 0 0 0 1 50 L 13 50 A 1.0001 1.0001 0 0 0 13.09375 50 L 24.84375 50 L 25 50 L 25.09375 50 L 36.84375 50 L 37 50 A 1.0001 1.0001 0 0 0 37.09375 50 L 49 50 A 1.0001 1.0001 0 0 0 50 49 L 50 47 C 50 44.315468 48.455307 41.954168 46.21875 40.78125 C 47.293024 39.862268 48 38.515649 48 37 C 48 34.250421 45.749579 32 43 32 C 40.250421 32 38 34.250421 38 37 C 38 38.515649 38.706976 39.862268 39.78125 40.78125 C 38.639752 41.379886 37.665801 42.306952 37 43.40625 C 36.331722 42.291329 35.369557 41.384768 34.21875 40.78125 C 35.293024 39.862268 36 38.515649 36 37 C 36 34.250421 33.749579 32 31 32 C 28.250421 32 26 34.250421 26 37 C 26 38.515649 26.706976 39.862268 27.78125 40.78125 C 26.639752 41.379886 25.665801 42.306952 25 43.40625 C 24.330631 42.30106 23.370287 41.382195 22.21875 40.78125 C 23.293024 39.862268 24 38.515649 24 37 C 24 34.594118 22.272748 32.562087 20 32.09375 L 20 23 L 24.28125 21.46875 L 24.3125 21.4375 C 24.3217 21.4348 24.33457 21.4403 24.34375 21.4375 C 25.195482 21.181507 25.896484 20.721089 26.375 20.09375 L 26.40625 20.09375 L 31.40625 13.625 A 1.0011001 1.0011001 0 0 0 31.40625 13.59375 C 32.32657 12.366657 32.18673 10.55411 30.90625 9.59375 C 30.292703 9.13359 29.539418 8.95122 28.8125 9.03125 C 28.085582 9.11128 27.38643 9.45351 26.90625 10.09375 L 22.625 15.625 L 16 17 L 15.9375 17 L 12 17 z M 12 7 C 14.220984 7 16 8.7790164 16 11 C 16 13.220984 14.220984 15 12 15 C 9.7790164 15 8 13.220984 8 11 C 8 8.7790164 9.7790164 7 12 7 z M 29.03125 11.03125 C 29.251557 11.00498 29.501046 11.04766 29.6875 11.1875 C 29.998912 11.421059 30.068335 12.001364 29.8125 12.375 C 29.8058 12.3847 29.8196 12.39679 29.8125 12.40625 L 24.8125 18.875 A 1.0011001 1.0011001 0 0 0 24.8125 18.90625 C 24.704692 19.049994 24.225042 19.386595 23.71875 19.53125 A 1.0011001 1.0011001 0 0 0 23.65625 19.5625 L 18.65625 21.34375 A 1.0011001 1.0011001 0 0 0 18 22.3125 L 18 32.09375 C 15.727252 32.562087 14 34.594118 14 37 C 14 38.515649 14.706976 39.862268 15.78125 40.78125 C 14.639752 41.379886 13.665801 42.306952 13 43.40625 C 12.331722 42.291329 11.369557 41.384768 10.21875 40.78125 C 11.293024 39.862268 12 38.515649 12 37 C 12 34.250421 9.7495791 32 7 32 L 7 21.6875 C 7 20.280167 7.4047853 19.77455 7.90625 19.4375 C 8.4077147 19.10045 9.1401667 19 9.6875 19 L 16 19 A 1.0011001 1.0011001 0 0 0 16.21875 18.96875 L 23.40625 17.46875 A 1.0011001 1.0011001 0 0 0 24 17.125 L 28.5 11.3125 C 28.61982 11.15274 28.810943 11.05752 29.03125 11.03125 z M 7 34 C 8.6686989 34 10 35.331301 10 37 C 10 38.668699 8.6686989 40 7 40 C 5.3313011 40 4 38.668699 4 37 C 4 35.647965 4.8744681 34.50539 6.09375 34.125 C 6.1517414 34.106908 6.2217532 34.108391 6.28125 34.09375 A 1.0011001 1.0011001 0 0 0 6.40625 34.0625 C 6.6023525 34.022838 6.7914126 34 7 34 z M 31 34 C 32.668699 34 34 35.331301 34 37 C 34 38.668699 32.668699 40 31 40 C 29.331301 40 28 38.668699 28 37 C 28 35.331301 29.331301 34 31 34 z M 43 34 C 44.668699 34 46 35.331301 46 37 C 46 38.668699 44.668699 40 43 40 C 41.331301 40 40 38.668699 40 37 C 40 35.331301 41.331301 34 43 34 z M 18.75 34.03125 C 18.760608 34.030354 18.770609 34.032037 18.78125 34.03125 A 1.0011001 1.0011001 0 0 0 19.1875 34.03125 C 19.198173 34.031928 19.208109 34.030463 19.21875 34.03125 C 20.778519 34.146632 22 35.40845 22 37 C 22 38.668699 20.668699 40 19 40 C 17.331301 40 16 38.668699 16 37 C 16 35.419308 17.205638 34.16165 18.75 34.03125 z M 7 42 C 9.7545455 42 12 44.245455 12 47 L 12 48 L 2 48 L 2 47 C 2 44.245455 4.2454545 42 7 42 z M 19 42 C 21.754545 42 24 44.245455 24 47 L 24 48 L 14 48 L 14 47 C 14 44.245455 16.245455 42 19 42 z M 31 42 C 33.754545 42 36 44.245455 36 47 L 36 48 L 26 48 L 26 47 C 26 44.245455 28.245455 42 31 42 z M 43 42 C 45.754545 42 48 44.245455 48 47 L 48 48 L 38 48 L 38 47 C 38 44.245455 40.245455 42 43 42 z"></path>
</svg>