<svg xmlns="http://www.w3.org/2000/svg" width="50" height="50" viewBox="0 0 50 50">
    <path style="text-indent:0;text-align:start;line-height:normal;text-transform:none;block-progression:tb;-inkscape-font-specification:Bitstream Vera Sans" d="M 19.875 4.40625 C 15.203288 4.492255 12.220404 6.3807765 10.9375 9.3125 C 9.7157028 12.104581 9.9893687 15.633048 10.875 19.28125 C 10.397706 19.838571 10.021163 20.58954 10.15625 21.71875 C 10.304101 22.947691 10.642843 23.822423 11.125 24.4375 C 11.389819 24.775324 11.739614 24.806548 12.0625 24.96875 C 12.239756 26.014579 12.531142 27.063833 12.96875 27.9375 C 13.220275 28.43966 13.50215 28.905206 13.78125 29.28125 C 13.904828 29.447752 14.087773 29.547272 14.21875 29.6875 C 14.22535 30.921109 14.23134 31.948655 14.125 33.25 C 13.799841 34.033851 13.042319 34.66744 11.8125 35.28125 C 10.543192 35.914769 8.888751 36.50092 7.21875 37.21875 C 5.548749 37.93658 3.8279742 38.811774 2.46875 40.1875 C 1.1095258 41.563226 0.14955274 43.449337 0 45.9375 L -0.0625 47 L 1 47 L 39 47 L 40.0625 47 L 40 45.9375 C 39.896247 44.208159 39.405442 42.772681 38.65625 41.59375 L 49 41.59375 L 50.0625 41.59375 L 50 40.53125 C 49.872827 38.40271 49.038299 36.744554 47.875 35.5625 C 46.711701 34.380446 45.252648 33.638902 43.84375 33.03125 C 42.434852 32.423598 41.050354 31.963237 40 31.4375 C 38.986045 30.929982 38.410911 30.418141 38.15625 29.8125 C 38.07295 28.761546 38.05633 27.907853 38.0625 26.90625 C 38.15842 26.795562 38.315269 26.718937 38.40625 26.59375 C 38.644406 26.266053 38.884618 25.867041 39.09375 25.4375 C 39.449316 24.707193 39.690476 23.842941 39.84375 22.96875 C 40.103881 22.822538 40.381883 22.800874 40.59375 22.53125 C 41.024106 21.983577 41.310031 21.24238 41.4375 20.1875 L 41.4375 20.15625 C 41.546411 19.241032 41.251803 18.627876 40.875 18.125 C 41.288059 16.771112 41.798525 14.630874 41.625 12.40625 C 41.52922 11.178286 41.218522 9.9429809 40.46875 8.90625 C 39.757452 7.9227192 38.592697 7.1989888 37.125 6.9375 C 36.170154 5.8803269 34.66653 5.40625 32.90625 5.40625 C 30.480664 5.4505765 28.59806 6.0518602 27.21875 7.125 C 26.589383 6.7362423 25.855847 6.4483978 25.03125 6.28125 C 23.981568 4.9193246 22.088357 4.40625 19.90625 4.40625 L 19.875 4.40625 z M 19.90625 6.40625 C 19.91884 6.40625 19.92497 6.4062044 19.9375 6.40625 C 21.95087 6.41358 23.253751 7.0041913 23.625 7.65625 L 23.875 8.0625 L 24.34375 8.125 C 25.734702 8.3182954 26.531476 8.8787686 27.09375 9.65625 C 27.656024 10.433731 27.968737 11.519001 28.0625 12.71875 C 28.250027 15.118247 27.55999 17.910519 27.125 19.21875 L 26.875 20 L 27.5625 20.40625 C 27.51938 20.38008 27.943811 20.669422 27.84375 21.5 C 27.72607 22.481854 27.492353 22.989402 27.3125 23.21875 C 27.132647 23.448098 27.038894 23.436874 27.03125 23.4375 L 26.1875 23.5 L 26.09375 24.3125 C 26.00106 25.177795 25.653191 26.233964 25.25 27.0625 C 25.048405 27.476768 24.839663 27.841139 24.65625 28.09375 C 24.472837 28.346361 24.279153 28.487787 24.375 28.4375 L 23.84375 28.71875 L 23.84375 29.3125 C 23.84375 30.760155 23.78566 31.948497 23.9375 33.625 L 23.9375 33.75 L 24 33.875 C 24.570884 35.409738 25.891572 36.3664 27.34375 37.09375 C 28.795928 37.8211 30.465316 38.355469 32.03125 39.03125 C 33.371505 39.609639 34.597628 40.297541 35.59375 41.15625 C 35.598885 41.160676 35.588629 41.183064 35.59375 41.1875 A 1.0001 1.0001 0 0 0 35.75 41.3125 A 1.0001 1.0001 0 0 0 35.96875 41.5 C 35.97434 41.505456 35.99443 41.49453 36 41.5 C 36.031034 41.530478 36.063326 41.562832 36.09375 41.59375 C 36.937074 42.450791 37.468086 43.583483 37.75 45 L 2.25 45 C 2.5327628 43.584119 3.0592672 42.451015 3.90625 41.59375 C 4.9717758 40.515288 6.427501 39.70717 8 39.03125 C 9.572499 38.35533 11.230558 37.820918 12.6875 37.09375 C 14.144442 36.366582 15.491064 35.411224 16.0625 33.875 L 16.09375 33.75 L 16.125 33.625 C 16.276805 31.948905 16.21875 30.760607 16.21875 29.3125 L 16.21875 28.71875 L 15.6875 28.4375 C 15.77872 28.48523 15.56365 28.34793 15.375 28.09375 C 15.18635 27.839575 14.957475 27.476715 14.75 27.0625 C 14.335051 26.23407 13.997608 25.168776 13.90625 24.3125 L 13.8125 23.5 L 12.96875 23.4375 C 12.96115 23.436878 12.867343 23.44817 12.6875 23.21875 C 12.507657 22.989327 12.274399 22.482059 12.15625 21.5 C 12.056864 20.669219 12.480627 20.379999 12.4375 20.40625 L 13.09375 20 L 12.90625 19.28125 C 11.964795 15.658031 11.801904 12.363027 12.78125 10.125 C 13.757843 7.8932657 15.748064 6.4905767 19.90625 6.40625 z M 32.90625 7.40625 C 32.91898 7.40625 32.92484 7.4061929 32.9375 7.40625 C 34.6023 7.41376 35.63971 7.9071279 35.90625 8.375 L 36.15625 8.78125 L 36.625 8.875 C 37.761308 9.0330351 38.393991 9.4406059 38.84375 10.0625 C 39.293509 10.684394 39.547658 11.570964 39.625 12.5625 C 39.779683 14.545572 39.205036 16.912005 38.84375 18 L 38.59375 18.75 L 39.28125 19.15625 C 39.18949 19.10031 39.545348 19.293823 39.46875 19.9375 C 39.37122 20.74462 39.159394 21.149423 39.03125 21.3125 C 38.903106 21.475577 38.8692 21.440658 38.90625 21.4375 L 38.0625 21.5 L 38 22.3125 C 37.9248 23.014811 37.613987 23.879083 37.28125 24.5625 C 37.114882 24.904209 36.959844 25.203509 36.8125 25.40625 C 36.724094 25.527895 36.659618 25.618505 36.625 25.65625 L 36.59375 25.65625 C 36.589716 25.661095 36.593857 25.685677 36.59375 25.6875 L 36.0625 25.9375 L 36.0625 26.53125 C 36.0625 27.747002 36.02851 28.764515 36.15625 30.1875 L 36.15625 30.3125 L 36.21875 30.4375 C 36.721027 31.786201 37.886979 32.59908 39.125 33.21875 C 40.363021 33.83842 41.751398 34.309527 43.0625 34.875 C 44.373602 35.440473 45.567424 36.084647 46.4375 36.96875 C 47.093048 37.634867 47.504645 38.523328 47.75 39.59375 L 36.875 39.59375 C 35.646177 38.552051 34.221063 37.826618 32.8125 37.21875 C 31.148809 36.500781 29.514479 35.914588 28.25 35.28125 C 27.036819 34.673606 26.268822 34.055916 25.9375 33.28125 C 25.827897 31.963068 25.836951 30.932241 25.84375 29.6875 C 25.973772 29.546021 26.159906 29.448375 26.28125 29.28125 C 26.555306 28.903798 26.81822 28.439482 27.0625 27.9375 C 27.488605 27.061876 27.795589 26.011691 27.96875 24.96875 C 28.283148 24.80649 28.61666 24.766934 28.875 24.4375 C 29.357397 23.822348 29.69643 22.947896 29.84375 21.71875 C 29.975563 20.624609 29.610546 19.902586 29.15625 19.34375 C 29.644491 17.757989 30.268136 15.193718 30.0625 12.5625 C 29.950263 11.126374 29.580976 9.6922373 28.71875 8.5 C 28.713977 8.4934003 28.723559 8.4753282 28.71875 8.46875 C 29.662001 7.8434348 31.000439 7.4458936 32.90625 7.40625 z" color="#000" overflow="visible" enable-background="accumulate" font-family="Bitstream Vera Sans"></path>
</svg>